<?xml version="1.0" encoding="utf-8"?>
<!-- Generator: Adobe Illustrator 16.0.0, SVG Export Plug-In . SVG Version: 6.00 Build 0)  -->
<!DOCTYPE svg PUBLIC "-//W3C//DTD SVG 1.1//EN" "http://www.w3.org/Graphics/SVG/1.1/DTD/svg11.dtd">
<svg version="1.1" id="Layer_1" xmlns="http://www.w3.org/2000/svg" xmlns:xlink="http://www.w3.org/1999/xlink" x="0px" y="0px"
	 width="60px" height="50px" viewBox="0 0 60 50" enable-background="new 0 0 60 50" xml:space="preserve">
<rect fill="#ED1164" width="60" height="50"/>
<g display="none">
	<path display="inline" fill="#FFFFFF" d="M37.484,20.299c-1.677,0-3.326,0.415-4.805,1.177c-1.119-4.578-5.244-7.989-10.162-7.989
		c-2.36,0-4.675,0.808-6.518,2.274c-0.802,0.639-0.935,1.807-0.296,2.609c0.639,0.803,1.807,0.936,2.609,0.297
		c1.207-0.96,2.66-1.467,4.206-1.467c3.726,0,6.758,3.032,6.758,6.758v0.667c-1.825-1.547-4.184-2.482-6.758-2.482
		c-5.774,0-10.472,4.697-10.472,10.471c0,5.775,4.698,10.473,10.472,10.473c2.574,0,4.933-0.936,6.758-2.481
		c2.27-1.923,3.714-4.79,3.714-7.991v-6.948c0.1-0.053,0.197-0.112,0.289-0.186c1.207-0.96,2.659-1.467,4.206-1.467
		c3.727,0,6.757,3.03,6.757,6.757v10.459c0,1.026,0.832,1.857,1.856,1.857c1.025,0,1.857-0.831,1.857-1.857V30.771
		C47.955,24.997,43.258,20.299,37.484,20.299z M22.518,39.374c-3.727,0-6.759-3.032-6.759-6.76c0-3.727,3.032-6.758,6.759-6.758
		c3.726,0,6.758,3.031,6.758,6.758C29.275,36.342,26.244,39.374,22.518,39.374z"/>
	<circle display="inline" fill="#FFFFFF" cx="35.307" cy="12.098" r="5.185"/>
</g>
<g display="none">
	<g display="inline">
		<path fill="#FFFFFF" d="M-9.368,66.388c-1.024,0-1.856-0.831-1.856-1.857V54.071c0-3.728-3.03-6.757-6.757-6.757
			c-1.547,0-2.999,0.507-4.206,1.467c-0.802,0.638-1.972,0.505-2.608-0.297c-0.639-0.803-0.506-1.971,0.296-2.609
			c1.844-1.467,4.158-2.275,6.519-2.275c5.773,0,10.471,4.698,10.471,10.472V64.53C-7.511,65.557-8.343,66.388-9.368,66.388z"/>
	</g>
	<g display="inline">
		<path fill="#FFFFFF" d="M-32.948,36.788c-2.36,0-4.675,0.808-6.518,2.274c-0.802,0.639-0.935,1.807-0.296,2.609
			c0.639,0.803,1.807,0.936,2.609,0.297c1.207-0.961,2.66-1.467,4.206-1.467c3.726,0,6.758,3.031,6.758,6.758v0.666
			c2.27,1.923,3.714,4.791,3.714,7.989V47.26C-22.477,41.484-27.174,36.788-32.948,36.788z"/>
		<path fill="#FFFFFF" d="M-32.948,62.675c-3.727,0-6.759-3.032-6.759-6.76c0-3.727,3.032-6.758,6.759-6.758
			c3.726,0,6.758,3.031,6.758,6.758v-7.989c-1.825-1.547-4.184-2.481-6.758-2.481c-5.774,0-10.472,4.697-10.472,10.471
			c0,5.775,4.698,10.473,10.472,10.473c2.574,0,4.933-0.936,6.758-2.481v-7.991C-26.19,59.643-29.222,62.675-32.948,62.675z"/>
		<path fill="#FFFFFF" d="M-26.19,47.926v7.989v7.991c2.27-1.923,3.714-4.79,3.714-7.991C-22.477,52.717-23.921,49.849-26.19,47.926
			z"/>
		<circle fill="#FFFFFF" cx="-20.159" cy="35.399" r="5.186"/>
	</g>
</g>
<g>
	<g>
		<path fill="#FFFFFF" d="M10.719,36.97l-4.206-6.833H6.469l0.059,6.833h-2.45V26.521h2.877l4.192,6.818h0.044l-0.059-6.818h2.449
			V36.97H10.719z"/>
		<path fill="#FFFFFF" d="M21.817,36.97l-0.813-2.052h-4.043l-0.768,2.052h-2.746l4.383-10.449h2.45L24.62,36.97H21.817z
			 M19.012,29.311l-1.328,3.586h2.626L19.012,29.311z"/>
		<path fill="#FFFFFF" d="M28.074,28.676v8.294H25.55v-8.294h-2.952v-2.155h8.427v2.155H28.074L28.074,28.676z"/>
		<path fill="#FFFFFF" d="M31.173,36.97V26.521h2.539V36.97H31.173z"/>
		<path fill="#FFFFFF" d="M40.058,37.25c-3.262,0-5.683-2.243-5.683-5.549c0-3.35,2.421-5.461,5.683-5.461
			c3.276,0,5.696,2.111,5.696,5.461C45.754,35.007,43.334,37.25,40.058,37.25z M40.058,28.514c-1.771,0-2.981,1.357-2.981,3.188
			c0,1.889,1.226,3.247,2.981,3.247c1.757,0,2.996-1.358,2.996-3.247C43.054,29.871,41.828,28.514,40.058,28.514z"/>
		<path fill="#FFFFFF" d="M53.059,36.97l-4.206-6.833h-0.044l0.06,6.833h-2.45V26.521h2.878l4.191,6.818h0.044l-0.059-6.818h2.45
			V36.97H53.059z"/>
	</g>
	<g>
		<path fill="#FFFFFF" d="M13.835,24.998l-0.952-2.405h-4.74l-0.899,2.405H4.026L9.164,12.75h2.872l5.086,12.248H13.835z
			 M10.548,16.02l-1.557,4.203h3.079L10.548,16.02z"/>
		<path fill="#FFFFFF" d="M21.844,24.998h-4.878V12.75h4.878c1.903,0,4.169,0.675,4.169,3.148c0,1.349-0.813,2.249-2.006,2.646
			v0.034c1.401,0.243,2.508,1.246,2.508,2.854C26.515,24.098,24.179,24.998,21.844,24.998z M21.272,15.102H19.82v2.526h1.592
			c1.107,0,1.747-0.467,1.747-1.332C23.159,15.466,22.519,15.102,21.272,15.102z M21.463,19.808H19.82v2.802h1.661
			c0.934,0,2.076-0.259,2.076-1.453C23.556,20.136,22.726,19.808,21.463,19.808z"/>
		<path fill="#FFFFFF" d="M27.292,24.998V12.75h2.976v9.669h4.74v2.578H27.292L27.292,24.998z"/>
		<path fill="#FFFFFF" d="M35.215,24.998V12.75h8.234v2.508h-5.38v2.3h5.086v2.37h-5.086v2.542h5.692v2.526H35.215L35.215,24.998z"
			/>
		<path fill="#FFFFFF" d="M49.105,24.998h-4.566V12.75h4.429c3.478,0,7.006,1.453,7.006,6.089
			C55.974,23.146,52.479,24.998,49.105,24.998z M48.898,15.275h-1.471v7.162h1.401c2.11,0,4.065-0.865,4.065-3.598
			C52.895,16.088,50.939,15.275,48.898,15.275z"/>
	</g>
</g>
</svg>
